<svg t="1637994340265" class="icon" viewBox="0 0 1024 1024" version="1.1" xmlns="http://www.w3.org/2000/svg" p-id="19174" width="14" height="14"><path d="M531.2 1024c-6.4 0-6.4 0-12.8 0L512 1024l-6.4 0c-6.4 0-6.4 0-12.8 0L460.8 1024l0 0c-256-19.2-403.2-140.8-403.2-339.2 0-166.4 140.8-332.8 224-416 19.2-19.2 25.6-51.2 6.4-76.8L230.4 102.4c-12.8-19.2-12.8-44.8 0-64C236.8 12.8 262.4 0 281.6 0l454.4 0c25.6 0 44.8 12.8 57.6 32 12.8 19.2 12.8 44.8 0 64l-57.6 89.6c-19.2 25.6-12.8 57.6 6.4 76.8 83.2 83.2 224 249.6 224 416 0 192-153.6 320-403.2 339.2l0 0L531.2 1024zM512 960 512 960l19.2 0c89.6-6.4 371.2-32 377.6-275.2 0-140.8-128-294.4-204.8-371.2-44.8-44.8-51.2-108.8-12.8-160L742.4 64 281.6 64l57.6 89.6c32 51.2 25.6 115.2-12.8 160-76.8 76.8-204.8 230.4-204.8 371.2 0 243.2 288 275.2 377.6 275.2L512 960 512 960z" p-id="19175"></path><path d="M505.6 825.6c-12.8 0-19.2 0-32 0-96-6.4-172.8-57.6-211.2-128-6.4-12.8 0-32 12.8-44.8 12.8-6.4 32 0 44.8 12.8 25.6 51.2 83.2 83.2 153.6 89.6 89.6 6.4 179.2-32 230.4-96 12.8-12.8 32-19.2 44.8-6.4 12.8 12.8 19.2 32 6.4 44.8C704 780.8 608 825.6 505.6 825.6z" p-id="19176"></path><path d="M326.4 236.8l371.2 0 0 64-371.2 0 0-64Z" p-id="19177"></path><path d="M358.4 473.6c-6.4 0-12.8 0-12.8-6.4C326.4 460.8 326.4 441.6 332.8 428.8l89.6-147.2C428.8 262.4 448 256 460.8 268.8c12.8 6.4 19.2 25.6 12.8 44.8L390.4 460.8C384 467.2 371.2 473.6 358.4 473.6z" p-id="19178"></path><path d="M800 748.8c-6.4 0-19.2 0-25.6-6.4L678.4 640c-12.8-12.8-12.8-32 0-44.8 12.8-12.8 32-12.8 44.8 0l102.4 102.4c12.8 12.8 12.8 32 0 44.8C812.8 748.8 806.4 748.8 800 748.8z" p-id="19179"></path></svg>