<svg t="1637993584063" class="icon" viewBox="0 0 1031 1024" version="1.1" xmlns="http://www.w3.org/2000/svg" p-id="2405" width="200" height="200"><path d="M1017.36701 495.422708c-25.576321 10.6568-44.758561 8.52544-102.305282-8.52544-25.576321-8.52544-34.101761-31.970401-21.313601-55.415362v-2.13136c4.26272-10.6568-6.39408-21.3136-17.05088-14.91952-44.758561 23.444961-89.517122 49.021281-138.538403 59.678081-31.970401 8.52544-49.021281-4.26272-49.021281-38.364481 0-6.39408 0-10.6568 2.13136-17.05088 8.52544-25.576321 17.05088-53.284001 27.70768-78.860322 17.05088-38.364481 36.233121-74.597602 53.284001-112.962082v-2.13136c2.13136-10.6568-8.52544-17.05088-17.05088-12.788161h-2.13136c-10.6568 8.52544-19.18224 17.05088-29.839041 25.576321-34.101761 23.444961-72.466242 8.52544-80.991682-31.970401-4.26272-17.05088 2.13136-66.072162-12.78816-72.466242-19.18224-8.52544-21.3136-23.444961-19.18224-42.627201 6.39408-27.707681 6.39408-12.78816 8.52544-46.889921L612.408601 5.209897c0-2.13136 0-2.13136-2.13136-4.262721s-4.26272 0-6.39408 0c-6.39408 4.26272-10.6568 8.52544-17.050881 14.919521-17.05088 21.3136-31.970401 42.627201-51.152641 63.940801-19.18224 23.444961-36.233121-14.91952-53.284001 29.839041-31.970401 89.517122-102.305282 53.284001-132.144323 49.021281-4.26272 0-12.78816 0-14.919521 4.26272-2.13136 4.26272-2.13136 10.6568 0 17.050881 17.05088 51.152641 59.678081 130.012963 14.919521 202.479204-21.3136 34.101761-59.678081 36.233121-85.254402 6.39408l-12.788161-19.18224c-12.78816-14.91952-25.576321-29.839041-40.49584-44.758561-6.39408-6.39408-14.91952-6.39408-14.919521 6.39408-6.39408 55.415361-59.678081 46.889921-106.568002 19.18224-19.18224-12.78816-38.364481-23.444961-59.678082-34.10176-6.39408-4.26272-23.444961-2.13136-27.70768 4.26272-8.52544 10.6568 4.26272 14.91952 10.6568 21.3136 25.576321 21.3136 40.495841 46.889921 34.101761 78.860322-8.52544 49.021281 29.839041 36.233121 34.101761 102.305282 2.13136 40.495841-29.839041 36.233121-59.678082 49.021282-4.26272 2.13136-8.52544 6.39408-8.52544 10.6568s4.26272 8.52544 8.52544 10.6568l25.576321 6.39408c25.576321 10.6568 53.284001 21.3136 78.860322 34.101761 17.05088 8.52544 25.576321 23.444961 29.83904 42.627201 4.26272 23.444961-10.6568 42.627201-34.101761 42.627201-12.78816 0-23.444961-4.26272-36.23312-6.39408h-2.13136c-8.52544 0-12.78816 10.6568-8.525441 17.05088h2.13136c6.39408 6.39408 17.05088 6.39408 23.444961 12.788161 34.101761 31.970401 74.597602 53.284001 119.356163 70.334881 19.18224 6.39408 23.444961 23.444961 19.18224 42.627201 0 4.26272-2.13136 6.39408-2.13136 10.6568s2.13136 8.52544 4.26272 10.656801c2.13136 2.13136 8.52544 0 10.6568-2.13136 29.839041-29.839041 57.546721-4.26272 89.517123-21.313601 2.13136 0 2.13136-2.13136 4.26272-2.13136 4.26272-2.13136 17.05088-8.52544 34.10176-12.78816l23.444961 19.18224c14.91952-4.26272 17.05088 6.39408 17.05088 6.39408 0 2.13136 2.13136 6.39408 2.13136 8.525441 12.78816 31.970401 34.101761 55.415361 59.678082 76.728961 8.52544 6.39408 17.05088 14.91952 25.57632 23.444961 17.05088 23.444961 23.444961 23.444961 38.364481-2.13136 6.39408-10.6568 12.78816-14.91952 25.576321-10.6568 57.546721 27.707681 117.224803 21.3136 174.771524 0 6.39408-2.13136 10.6568-6.39408 17.05088-10.656801v-4.26272c-6.39408-2.13136-14.91952-4.26272-21.3136-4.26272-27.707681-2.13136-42.627201-21.3136-38.364481-46.889921 12.78816-61.809441 66.072162-87.385762 127.881603-95.911202 23.444961-4.26272 46.889921-10.6568 68.203521-19.182241 4.26272-2.13136 6.39408-8.52544 10.656801-12.78816-4.26272-2.13136-10.6568-6.39408-14.919521-6.39408-29.839041-2.13136-44.758561-25.576321-34.10176-53.284001 17.05088-44.758561 63.940801-59.678081 93.779842-74.597602 12.78816-6.39408 14.91952-12.78816 6.39408-21.313601-14.91952-14.91952-19.18224-23.444961-2.13136-34.10176 29.839041-17.05088 51.152641-38.364481 70.334881-70.334882-4.26272-6.39408-8.52544-10.6568-12.78816-10.6568z" fill="#ED7161" p-id="2406"></path><path d="M904.404928 535.918549l-2.131361-4.26272c-59.678081 10.6568-110.830723 42.627201-164.114723 78.860321 6.39408-44.758561 31.970401-78.860322 55.415361-112.962082-8.52544 4.26272-17.05088 8.52544-21.313601 17.05088-36.233121 59.678081-63.940801 112.962083-80.991681 125.750243-17.05088 14.91952-68.203522 55.415361-87.385762 66.072162l-4.262721-2.13136c10.6568-63.940801 38.364481-121.487523 74.597602-176.902884-6.39408 2.13136-12.78816 4.26272-14.91952 10.6568-38.364481 61.809441-46.889921 66.072162-78.860322 166.246084-23.444961 80.991682-100.173922 89.517122-170.508804 125.750243 29.839041-72.466242 53.284001-140.669763 72.466242-202.479205 10.6568-6.39408 29.839041-38.364481 42.627201-49.021281 23.444961-19.18224 72.466242-53.284001 93.779842-66.072162-2.13136-4.26272-2.13136-2.13136-2.13136-6.39408-21.3136 8.52544-80.991682 31.970401-121.487523 76.728962 12.78816-42.627201 21.3136-80.991682 29.839041-117.224803 51.152641-51.152641 31.970401-51.152641 55.415361-80.991682 17.05088-23.444961 57.546721-63.940801 78.860322-85.254402l-4.26272-4.26272c-29.839041 19.18224-95.911202 63.940801-121.487523 125.750243 31.970401-181.165604 10.6568-270.682726 10.6568-270.682726-4.26272 87.385762-17.05088 174.771524-34.101761 257.894566-25.576321-85.254402-74.597602-93.779842-78.860321-187.559685-2.13136 0-4.26272 0-6.394081-2.13136-27.707681 80.991682 49.021281 93.779842 70.334882 255.763206-14.91952 57.546721-29.839041 112.962083-44.758561 161.983364-4.26272-100.173922-95.911202-104.436642-76.728962-208.873285v-8.52544l-4.26272-4.26272c-2.13136 6.39408-6.39408 10.6568-6.39408 14.91952-19.18224 117.224803 74.597602 134.275683 78.860322 232.318246-19.18224 55.415361-36.233121 102.305282-46.889921 134.275683-6.39408-25.576321-29.839041-57.546721-40.495841-87.385762-40.495841-106.568002-140.669763-125.750243-110.830723-200.347845 17.05088-42.627201-6.39408-78.860322-25.57632-112.962083-2.13136 0-4.26272 0-6.39408 2.131361 17.05088 57.546721 34.101761 78.860322-2.131361 125.750242-34.101761-57.546721-76.728962-102.305282-123.618882-140.669763 17.05088 46.889921 63.940801 74.597602 87.385762 121.487523-21.3136-6.39408-40.495841-12.78816-57.546722-19.18224l-2.13136 2.13136c4.26272 4.26272 6.39408 10.6568 10.656801 12.78816 59.678081 29.839041 78.860322 10.6568 130.012963 106.568002-72.466242-31.970401-100.173922-8.52544-140.669764-46.889921l-12.78816-6.39408c46.889921 80.991682 176.902884 10.6568 242.975046 176.902884 4.26272 8.52544 23.444961 40.495841 23.44496 53.284001-25.576321-19.18224-40.495841-55.415361-93.779842-57.546721-98.042562-4.26272-93.779842-6.39408-110.830723-4.26272 6.39408 4.26272 10.6568 8.52544 17.050881 10.6568 46.889921 8.52544 123.618883 0 191.822404 83.123042 6.39408 8.52544 8.52544 17.05088 4.26272 29.839041-53.284001 91.648482-174.771524 51.152641-240.843685 151.326563-6.39408 6.39408 0 25.576321 17.05088 27.707681 6.39408 0 12.78816-2.13136 17.050881-10.6568 40.495841-100.173922 127.881603-74.597602 196.085124-134.275683 17.05088-12.78816 27.707681-19.18224 36.233121-21.313601l63.940801-27.70768c46.889921 78.860322 119.356163 95.911202 200.347845 91.648482 2.13136-2.13136 2.13136-6.39408 4.26272-8.525441-76.728962-2.13136-144.932483-23.444961-189.691044-89.517122 98.042562-40.495841 76.728962-36.233121 136.407043-19.18224-12.78816-19.18224-14.91952-19.18224-61.809442-29.839041 46.889921-40.495841 53.284001-51.152641 74.597602-38.364481 61.809441 31.970401 112.962083 31.970401 170.508804 12.788161v-6.39408c-59.678081 17.05088-115.093443 10.6568-168.377444-25.576321 14.91952-19.18224 53.284001-46.889921 78.860322-66.072162 29.839041-21.3136 40.495841-2.13136 66.072162 4.26272 17.05088 4.26272 36.233121 0 44.758561-10.6568-23.444961 0-49.021281 6.39408-66.072162-17.05088 31.970401-38.364481 74.597602-55.415361 149.195204-91.648482z" fill="#D66556" p-id="2407"></path></svg>