<svg t="1638016493286" class="icon" viewBox="0 0 1024 1024" version="1.1" xmlns="http://www.w3.org/2000/svg" p-id="22830" width="200" height="200"><path d="M184.12 360.57c-7.7 26.14-16.83 49.13-21.04 72.94-9.5 53.75 22.47 95.92 77.86 95.67 41.04-0.18 82.86-8.38 122.94-18.4 193.72-48.41 592.16-152.05 596.36-149.83-41.48 17.32-88.33 37.01-129.87 54.21-173.95 72.03-347.86 144.16-521.97 215.82-43.16 17.77-87.4 32.08-135.17 32.04-84.44-0.04-127.06-57.45-101.83-137.14 18.73-59.14 57.31-105.68 98.44-150.66 4.13-4.52 8.55-8.79 14.28-14.65z" fill="#333333" p-id="22831"></path></svg>
